<svg xmlns="http://www.w3.org/2000/svg" version="1.1" xmlns:xlink="http://www.w3.org/1999/xlink" xmlns:svgjs="http://svgjs.dev/svgjs" width="1026" height="520" preserveAspectRatio="none" viewBox="0 0 1026 520"><g mask="url(&quot;#SvgjsMask1005&quot;)" fill="none"><path d="M675 519L854 340" stroke-width="10" stroke="url(&quot;#SvgjsLinearGradient1006&quot;)" stroke-linecap="round" class="TopRight"></path><path d="M619 464L444 639" stroke-width="8" stroke="url(&quot;#SvgjsLinearGradient1007&quot;)" stroke-linecap="round" class="TopRight"></path><path d="M398 276L253 421" stroke-width="10" stroke="url(&quot;#SvgjsLinearGradient1008&quot;)" stroke-linecap="round" class="BottomLeft"></path><path d="M1006 42L709 339" stroke-width="8" stroke="url(&quot;#SvgjsLinearGradient1006&quot;)" stroke-linecap="round" class="TopRight"></path><path d="M789 405L528 666" stroke-width="10" stroke="url(&quot;#SvgjsLinearGradient1007&quot;)" stroke-linecap="round" class="TopRight"></path><path d="M314 387L71 630" stroke-width="8" stroke="url(&quot;#SvgjsLinearGradient1008&quot;)" stroke-linecap="round" class="BottomLeft"></path><path d="M906 447L569 784" stroke-width="10" stroke="url(&quot;#SvgjsLinearGradient1006&quot;)" stroke-linecap="round" class="TopRight"></path><path d="M680 397L451 626" stroke-width="10" stroke="url(&quot;#SvgjsLinearGradient1008&quot;)" stroke-linecap="round" class="BottomLeft"></path><path d="M336 422L695 63" stroke-width="6" stroke="url(&quot;#SvgjsLinearGradient1006&quot;)" stroke-linecap="round" class="TopRight"></path><path d="M819 35L610 244" stroke-width="8" stroke="url(&quot;#SvgjsLinearGradient1007&quot;)" stroke-linecap="round" class="TopRight"></path><path d="M588 38L974 -348" stroke-width="6" stroke="url(&quot;#SvgjsLinearGradient1006&quot;)" stroke-linecap="round" class="TopRight"></path><path d="M973 202L701 474" stroke-width="10" stroke="url(&quot;#SvgjsLinearGradient1007&quot;)" stroke-linecap="round" class="TopRight"></path><path d="M50 450L-278 778" stroke-width="10" stroke="url(&quot;#SvgjsLinearGradient1008&quot;)" stroke-linecap="round" class="BottomLeft"></path><path d="M835 385L459 761" stroke-width="6" stroke="url(&quot;#SvgjsLinearGradient1007&quot;)" stroke-linecap="round" class="TopRight"></path><path d="M953 370L601 722" stroke-width="8" stroke="url(&quot;#SvgjsLinearGradient1008&quot;)" stroke-linecap="round" class="BottomLeft"></path><path d="M79 132L224 -13" stroke-width="6" stroke="url(&quot;#SvgjsLinearGradient1009&quot;)" stroke-linecap="round" class="BottomLeft"></path><path d="M170 116L387 -101" stroke-width="10" stroke="url(&quot;#SvgjsLinearGradient1007&quot;)" stroke-linecap="round" class="TopRight"></path><path d="M385 297L10 672" stroke-width="10" stroke="url(&quot;#SvgjsLinearGradient1007&quot;)" stroke-linecap="round" class="TopRight"></path><path d="M789 239L525 503" stroke-width="10" stroke="url(&quot;#SvgjsLinearGradient1008&quot;)" stroke-linecap="round" class="BottomLeft"></path><path d="M102 197L324 -25" stroke-width="10" stroke="url(&quot;#SvgjsLinearGradient1007&quot;)" stroke-linecap="round" class="TopRight"></path><path d="M438 157L741 -146" stroke-width="8" stroke="url(&quot;#SvgjsLinearGradient1009&quot;)" stroke-linecap="round" class="BottomLeft"></path><path d="M567 450L234 783" stroke-width="8" stroke="url(&quot;#SvgjsLinearGradient1009&quot;)" stroke-linecap="round" class="BottomLeft"></path><path d="M74 129L-192 395" stroke-width="8" stroke="url(&quot;#SvgjsLinearGradient1006&quot;)" stroke-linecap="round" class="TopRight"></path><path d="M401 252L103 550" stroke-width="6" stroke="url(&quot;#SvgjsLinearGradient1008&quot;)" stroke-linecap="round" class="BottomLeft"></path><path d="M826 436L502 760" stroke-width="10" stroke="url(&quot;#SvgjsLinearGradient1007&quot;)" stroke-linecap="round" class="TopRight"></path><path d="M8 515L362 161" stroke-width="8" stroke="url(&quot;#SvgjsLinearGradient1006&quot;)" stroke-linecap="round" class="TopRight"></path><path d="M170 395L-91 656" stroke-width="10" stroke="url(&quot;#SvgjsLinearGradient1007&quot;)" stroke-linecap="round" class="TopRight"></path><path d="M263 256L485 34" stroke-width="10" stroke="url(&quot;#SvgjsLinearGradient1007&quot;)" stroke-linecap="round" class="TopRight"></path><path d="M755 168L1044 -121" stroke-width="10" stroke="url(&quot;#SvgjsLinearGradient1007&quot;)" stroke-linecap="round" class="TopRight"></path></g><defs><mask id="SvgjsMask1005"><rect width="1026" height="520" fill="#ffffff"></rect></mask><linearGradient x1="0%" y1="100%" x2="100%" y2="0%" id="SvgjsLinearGradient1006"><stop stop-color="rgba(255, 237, 213, 0)" offset="0"></stop><stop stop-color="rgba(255, 237, 213, 1)" offset="1"></stop></linearGradient><linearGradient x1="0%" y1="100%" x2="100%" y2="0%" id="SvgjsLinearGradient1007"><stop stop-color="rgba(239, 246, 255, 0)" offset="0"></stop><stop stop-color="rgba(239, 246, 255, 1)" offset="1"></stop></linearGradient><linearGradient x1="100%" y1="0%" x2="0%" y2="100%" id="SvgjsLinearGradient1008"><stop stop-color="rgba(255, 237, 213, 0)" offset="0"></stop><stop stop-color="rgba(255, 237, 213, 1)" offset="1"></stop></linearGradient><linearGradient x1="100%" y1="0%" x2="0%" y2="100%" id="SvgjsLinearGradient1009"><stop stop-color="rgba(239, 246, 255, 0)" offset="0"></stop><stop stop-color="rgba(239, 246, 255, 1)" offset="1"></stop></linearGradient></defs></svg>