<svg xmlns="http://www.w3.org/2000/svg" version="1.1" xmlns:xlink="http://www.w3.org/1999/xlink" xmlns:svgjs="http://svgjs.dev/svgjs" width="1026" height="520" preserveAspectRatio="none" viewBox="0 0 1026 520"><g mask="url(&quot;#SvgjsMask1027&quot;)" fill="none"><rect width="1026" height="520" x="0" y="0" fill="rgba(255, 255, 255, 1)"></rect><path d="M22 18L-127 167" stroke-width="8" stroke="url(&quot;#SvgjsLinearGradient1028&quot;)" stroke-linecap="round" class="TopRight"></path><path d="M961 28L1138 -149" stroke-width="6" stroke="url(&quot;#SvgjsLinearGradient1028&quot;)" stroke-linecap="round" class="TopRight"></path><path d="M157 414L-11 582" stroke-width="8" stroke="url(&quot;#SvgjsLinearGradient1029&quot;)" stroke-linecap="round" class="TopRight"></path><path d="M925 211L1285 -149" stroke-width="10" stroke="url(&quot;#SvgjsLinearGradient1028&quot;)" stroke-linecap="round" class="TopRight"></path><path d="M405 330L542 193" stroke-width="8" stroke="url(&quot;#SvgjsLinearGradient1028&quot;)" stroke-linecap="round" class="TopRight"></path><path d="M76 145L-250 471" stroke-width="6" stroke="url(&quot;#SvgjsLinearGradient1028&quot;)" stroke-linecap="round" class="TopRight"></path><path d="M611 37L748 -100" stroke-width="8" stroke="url(&quot;#SvgjsLinearGradient1030&quot;)" stroke-linecap="round" class="BottomLeft"></path><path d="M489 83L203 369" stroke-width="10" stroke="url(&quot;#SvgjsLinearGradient1031&quot;)" stroke-linecap="round" class="BottomLeft"></path><path d="M427 13L203 237" stroke-width="6" stroke="url(&quot;#SvgjsLinearGradient1031&quot;)" stroke-linecap="round" class="BottomLeft"></path><path d="M825 329L1026 128" stroke-width="8" stroke="url(&quot;#SvgjsLinearGradient1028&quot;)" stroke-linecap="round" class="TopRight"></path><path d="M33 269L320 -18" stroke-width="8" stroke="url(&quot;#SvgjsLinearGradient1031&quot;)" stroke-linecap="round" class="BottomLeft"></path><path d="M205 207L356 56" stroke-width="8" stroke="url(&quot;#SvgjsLinearGradient1028&quot;)" stroke-linecap="round" class="TopRight"></path><path d="M217 240L-168 625" stroke-width="8" stroke="url(&quot;#SvgjsLinearGradient1028&quot;)" stroke-linecap="round" class="TopRight"></path><path d="M876 471L531 816" stroke-width="8" stroke="url(&quot;#SvgjsLinearGradient1031&quot;)" stroke-linecap="round" class="BottomLeft"></path><path d="M491 77L796 -228" stroke-width="8" stroke="url(&quot;#SvgjsLinearGradient1031&quot;)" stroke-linecap="round" class="BottomLeft"></path><path d="M984 450L1227 207" stroke-width="6" stroke="url(&quot;#SvgjsLinearGradient1028&quot;)" stroke-linecap="round" class="TopRight"></path><path d="M631 435L375 691" stroke-width="8" stroke="url(&quot;#SvgjsLinearGradient1029&quot;)" stroke-linecap="round" class="TopRight"></path><path d="M538 40L362 216" stroke-width="8" stroke="url(&quot;#SvgjsLinearGradient1028&quot;)" stroke-linecap="round" class="TopRight"></path><path d="M234 408L-9 651" stroke-width="6" stroke="url(&quot;#SvgjsLinearGradient1028&quot;)" stroke-linecap="round" class="TopRight"></path><path d="M475 163L305 333" stroke-width="8" stroke="url(&quot;#SvgjsLinearGradient1031&quot;)" stroke-linecap="round" class="BottomLeft"></path><path d="M427 496L651 272" stroke-width="8" stroke="url(&quot;#SvgjsLinearGradient1029&quot;)" stroke-linecap="round" class="TopRight"></path><path d="M98 506L-287 891" stroke-width="8" stroke="url(&quot;#SvgjsLinearGradient1028&quot;)" stroke-linecap="round" class="TopRight"></path><path d="M153 368L-168 689" stroke-width="10" stroke="url(&quot;#SvgjsLinearGradient1028&quot;)" stroke-linecap="round" class="TopRight"></path><path d="M193 1L352 -158" stroke-width="8" stroke="url(&quot;#SvgjsLinearGradient1028&quot;)" stroke-linecap="round" class="TopRight"></path><path d="M29 369L396 2" stroke-width="6" stroke="url(&quot;#SvgjsLinearGradient1030&quot;)" stroke-linecap="round" class="BottomLeft"></path><path d="M261 213L14 460" stroke-width="6" stroke="url(&quot;#SvgjsLinearGradient1029&quot;)" stroke-linecap="round" class="TopRight"></path><path d="M511 295L804 2" stroke-width="6" stroke="url(&quot;#SvgjsLinearGradient1029&quot;)" stroke-linecap="round" class="TopRight"></path><path d="M422 213L776 -141" stroke-width="10" stroke="url(&quot;#SvgjsLinearGradient1028&quot;)" stroke-linecap="round" class="TopRight"></path><path d="M449 445L278 616" stroke-width="10" stroke="url(&quot;#SvgjsLinearGradient1031&quot;)" stroke-linecap="round" class="BottomLeft"></path></g><defs><mask id="SvgjsMask1027"><rect width="1026" height="520" fill="#ffffff"></rect></mask><linearGradient x1="0%" y1="100%" x2="100%" y2="0%" id="SvgjsLinearGradient1028"><stop stop-color="rgba(239, 246, 255, 0)" offset="0"></stop><stop stop-color="rgba(239, 246, 255, 1)" offset="1"></stop></linearGradient><linearGradient x1="0%" y1="100%" x2="100%" y2="0%" id="SvgjsLinearGradient1029"><stop stop-color="rgba(255, 237, 213, 0)" offset="0"></stop><stop stop-color="rgba(255, 237, 213, 1)" offset="1"></stop></linearGradient><linearGradient x1="100%" y1="0%" x2="0%" y2="100%" id="SvgjsLinearGradient1030"><stop stop-color="rgba(239, 246, 255, 0)" offset="0"></stop><stop stop-color="rgba(239, 246, 255, 1)" offset="1"></stop></linearGradient><linearGradient x1="100%" y1="0%" x2="0%" y2="100%" id="SvgjsLinearGradient1031"><stop stop-color="rgba(255, 237, 213, 0)" offset="0"></stop><stop stop-color="rgba(255, 237, 213, 1)" offset="1"></stop></linearGradient></defs></svg>