<svg xmlns="http://www.w3.org/2000/svg" version="1.1" xmlns:xlink="http://www.w3.org/1999/xlink" xmlns:svgjs="http://svgjs.dev/svgjs" width="1026" height="520" preserveAspectRatio="none" viewBox="0 0 1026 520"><g mask="url(&quot;#SvgjsMask1125&quot;)" fill="none"><rect width="1026" height="520" x="0" y="0" fill="rgba(255, 255, 255, 1)"></rect><path d="M268 135L564 -161" stroke-width="10" stroke="url(&quot;#SvgjsLinearGradient1126&quot;)" stroke-linecap="round" class="BottomLeft"></path><path d="M561 169L178 552" stroke-width="6" stroke="url(&quot;#SvgjsLinearGradient1126&quot;)" stroke-linecap="round" class="BottomLeft"></path><path d="M821 24L665 180" stroke-width="10" stroke="url(&quot;#SvgjsLinearGradient1126&quot;)" stroke-linecap="round" class="BottomLeft"></path><path d="M397 504L206 695" stroke-width="8" stroke="url(&quot;#SvgjsLinearGradient1127&quot;)" stroke-linecap="round" class="BottomLeft"></path><path d="M495 243L281 457" stroke-width="8" stroke="url(&quot;#SvgjsLinearGradient1126&quot;)" stroke-linecap="round" class="BottomLeft"></path><path d="M980 307L614 673" stroke-width="6" stroke="url(&quot;#SvgjsLinearGradient1128&quot;)" stroke-linecap="round" class="TopRight"></path><path d="M309 108L462 -45" stroke-width="8" stroke="url(&quot;#SvgjsLinearGradient1129&quot;)" stroke-linecap="round" class="TopRight"></path><path d="M782 433L478 737" stroke-width="8" stroke="url(&quot;#SvgjsLinearGradient1126&quot;)" stroke-linecap="round" class="BottomLeft"></path><path d="M338 402L63 677" stroke-width="6" stroke="url(&quot;#SvgjsLinearGradient1129&quot;)" stroke-linecap="round" class="TopRight"></path><path d="M887 431L608 710" stroke-width="6" stroke="url(&quot;#SvgjsLinearGradient1129&quot;)" stroke-linecap="round" class="TopRight"></path><path d="M890 177L1224 -157" stroke-width="10" stroke="url(&quot;#SvgjsLinearGradient1129&quot;)" stroke-linecap="round" class="TopRight"></path><path d="M915 71L602 384" stroke-width="10" stroke="url(&quot;#SvgjsLinearGradient1128&quot;)" stroke-linecap="round" class="TopRight"></path><path d="M178 252L-3 433" stroke-width="6" stroke="url(&quot;#SvgjsLinearGradient1127&quot;)" stroke-linecap="round" class="BottomLeft"></path><path d="M759 297L954 102" stroke-width="8" stroke="url(&quot;#SvgjsLinearGradient1126&quot;)" stroke-linecap="round" class="BottomLeft"></path><path d="M511 308L255 564" stroke-width="6" stroke="url(&quot;#SvgjsLinearGradient1127&quot;)" stroke-linecap="round" class="BottomLeft"></path><path d="M672 268L432 508" stroke-width="8" stroke="url(&quot;#SvgjsLinearGradient1126&quot;)" stroke-linecap="round" class="BottomLeft"></path><path d="M268 371L635 4" stroke-width="8" stroke="url(&quot;#SvgjsLinearGradient1126&quot;)" stroke-linecap="round" class="BottomLeft"></path><path d="M598 492L836 254" stroke-width="8" stroke="url(&quot;#SvgjsLinearGradient1129&quot;)" stroke-linecap="round" class="TopRight"></path><path d="M1008 53L1311 -250" stroke-width="10" stroke="url(&quot;#SvgjsLinearGradient1127&quot;)" stroke-linecap="round" class="BottomLeft"></path><path d="M405 10L109 306" stroke-width="6" stroke="url(&quot;#SvgjsLinearGradient1128&quot;)" stroke-linecap="round" class="TopRight"></path><path d="M541 456L313 684" stroke-width="10" stroke="url(&quot;#SvgjsLinearGradient1128&quot;)" stroke-linecap="round" class="TopRight"></path><path d="M9 196L351 -146" stroke-width="8" stroke="url(&quot;#SvgjsLinearGradient1127&quot;)" stroke-linecap="round" class="BottomLeft"></path><path d="M217 267L-11 495" stroke-width="6" stroke="url(&quot;#SvgjsLinearGradient1127&quot;)" stroke-linecap="round" class="BottomLeft"></path><path d="M958 401L1310 49" stroke-width="6" stroke="url(&quot;#SvgjsLinearGradient1127&quot;)" stroke-linecap="round" class="BottomLeft"></path><path d="M822 56L962 -84" stroke-width="6" stroke="url(&quot;#SvgjsLinearGradient1127&quot;)" stroke-linecap="round" class="BottomLeft"></path><path d="M267 411L-109 787" stroke-width="8" stroke="url(&quot;#SvgjsLinearGradient1127&quot;)" stroke-linecap="round" class="BottomLeft"></path><path d="M734 63L467 330" stroke-width="8" stroke="url(&quot;#SvgjsLinearGradient1128&quot;)" stroke-linecap="round" class="TopRight"></path><path d="M95 191L-146 432" stroke-width="8" stroke="url(&quot;#SvgjsLinearGradient1127&quot;)" stroke-linecap="round" class="BottomLeft"></path><path d="M998 297L1190 105" stroke-width="8" stroke="url(&quot;#SvgjsLinearGradient1126&quot;)" stroke-linecap="round" class="BottomLeft"></path></g><defs><mask id="SvgjsMask1125"><rect width="1026" height="520" fill="#ffffff"></rect></mask><linearGradient x1="100%" y1="0%" x2="0%" y2="100%" id="SvgjsLinearGradient1126"><stop stop-color="rgba(239, 246, 255, 0)" offset="0"></stop><stop stop-color="rgba(239, 246, 255, 1)" offset="1"></stop></linearGradient><linearGradient x1="100%" y1="0%" x2="0%" y2="100%" id="SvgjsLinearGradient1127"><stop stop-color="rgba(255, 237, 213, 0)" offset="0"></stop><stop stop-color="rgba(255, 237, 213, 1)" offset="1"></stop></linearGradient><linearGradient x1="0%" y1="100%" x2="100%" y2="0%" id="SvgjsLinearGradient1128"><stop stop-color="rgba(239, 246, 255, 0)" offset="0"></stop><stop stop-color="rgba(239, 246, 255, 1)" offset="1"></stop></linearGradient><linearGradient x1="0%" y1="100%" x2="100%" y2="0%" id="SvgjsLinearGradient1129"><stop stop-color="rgba(255, 237, 213, 0)" offset="0"></stop><stop stop-color="rgba(255, 237, 213, 1)" offset="1"></stop></linearGradient></defs></svg>