<svg xmlns="http://www.w3.org/2000/svg" width="1.2rem" height="1.2rem" viewBox="0 0 24 24"><path fill="#0e7490" d="M5 20q-.825 0-1.412-.587T3 18V4q0-.825.588-1.412T5 2h14q.825 0 1.413.588T21 4v6q0 .425-.288.713T20 11q-.425 0-.712-.288T19 10V4H5v14h2.5q.425 0 .713.288T8.5 19q0 .425-.288.713T7.5 20zm0-3v1V4zm2-4v2q0 .425.288.713T8 16h.1q.2-1.225.875-2.262T10.7 12H8q-.425 0-.712.288T7 13m0-6v2q0 .425.288.713T8 10h2q.425 0 .713-.288T11 9V7q0-.425-.288-.712T10 6H8q-.425 0-.712.288T7 7m7 14q-1.65 0-2.825-1.175T10 17q0-1.65 1.175-2.825T14 13h1q.425 0 .713.288T16 14q0 .425-.288.713T15 15h-1q-.825 0-1.412.588T12 17q0 .825.588 1.413T14 19h1q.425 0 .713.288T16 20q0 .425-.288.713T15 21zm0-11h2q.425 0 .713-.288T17 9V7q0-.425-.288-.712T16 6h-2q-.425 0-.712.288T13 7v2q0 .425.288.713T14 10m1 8q-.425 0-.712-.288T14 17q0-.425.288-.712T15 16h4q.425 0 .713.288T20 17q0 .425-.288.713T19 18zm5 3h-1q-.425 0-.712-.288T18 20q0-.425.288-.712T19 19h1q.825 0 1.413-.587T22 17q0-.825-.587-1.412T20 15h-1q-.425 0-.712-.288T18 14q0-.425.288-.712T19 13h1q1.65 0 2.825 1.163T24 17q0 1.65-1.175 2.825T20 21"/></svg>