<svg xmlns="http://www.w3.org/2000/svg" version="1.1" xmlns:xlink="http://www.w3.org/1999/xlink" xmlns:svgjs="http://svgjs.dev/svgjs" viewBox="0 0 800 800" opacity="0.46" width="800" height="800"><g stroke-width="1" stroke="hsla(37, 91%, 55%, 1.00)" fill="none"><rect width="6.578947368421053" height="6.578947368421053" x="-3.2894736842105265" y="-3.2894736842105265" transform="rotate(45, 0, 0)"></rect><rect width="6.578947368421053" height="6.578947368421053" x="63.377192982456144" y="-3.2894736842105265" transform="rotate(45, 66.66666666666667, 0)"></rect><rect width="6.578947368421053" height="6.578947368421053" x="130.04385964912282" y="-3.2894736842105265" transform="rotate(45, 133.33333333333334, 0)"></rect><rect width="6.578947368421053" height="6.578947368421053" x="196.71052631578948" y="-3.2894736842105265" transform="rotate(45, 200, 0)"></rect><rect width="6.578947368421053" height="6.578947368421053" x="263.37719298245617" y="-3.2894736842105265" transform="rotate(45, 266.6666666666667, 0)"></rect><rect width="6.578947368421053" height="6.578947368421053" x="330.04385964912285" y="-3.2894736842105265" transform="rotate(45, 333.33333333333337, 0)"></rect><rect width="6.578947368421053" height="6.578947368421053" x="396.71052631578954" y="-3.2894736842105265" transform="rotate(45, 400.00000000000006, 0)"></rect><rect width="6.578947368421053" height="6.578947368421053" x="463.3771929824562" y="-3.2894736842105265" transform="rotate(45, 466.66666666666674, 0)"></rect><rect width="6.578947368421053" height="6.578947368421053" x="530.0438596491229" y="-3.2894736842105265" transform="rotate(45, 533.3333333333334, 0)"></rect><rect width="6.578947368421053" height="6.578947368421053" x="596.7105263157895" y="-3.2894736842105265" transform="rotate(45, 600, 0)"></rect><rect width="6.578947368421053" height="6.578947368421053" x="663.3771929824561" y="-3.2894736842105265" transform="rotate(45, 666.6666666666666, 0)"></rect><rect width="6.578947368421053" height="6.578947368421053" x="730.0438596491227" y="-3.2894736842105265" transform="rotate(45, 733.3333333333333, 0)"></rect><rect width="6.578947368421053" height="6.578947368421053" x="796.7105263157894" y="-3.2894736842105265" transform="rotate(45, 799.9999999999999, 0)"></rect><rect width="6.578947368421053" height="6.578947368421053" x="-3.2894736842105265" y="63.377192982456144" transform="rotate(45, 0, 66.66666666666667)"></rect><rect width="6.578947368421053" height="6.578947368421053" x="63.377192982456144" y="63.377192982456144" fill="hsla(37, 91%, 55%, 1.00)" stroke="none" transform="rotate(45, 66.66666666666667, 66.66666666666667)"></rect><rect width="6.578947368421053" height="6.578947368421053" x="130.04385964912282" y="63.377192982456144" transform="rotate(45, 133.33333333333334, 66.66666666666667)"></rect><rect width="6.578947368421053" height="6.578947368421053" x="196.71052631578948" y="63.377192982456144" fill="hsla(37, 91%, 55%, 1.00)" stroke="none" transform="rotate(45, 200, 66.66666666666667)"></rect><rect width="6.578947368421053" height="6.578947368421053" x="263.37719298245617" y="63.377192982456144" fill="hsla(37, 91%, 55%, 1.00)" stroke="none" transform="rotate(45, 266.6666666666667, 66.66666666666667)"></rect><rect width="6.578947368421053" height="6.578947368421053" x="330.04385964912285" y="63.377192982456144" transform="rotate(45, 333.33333333333337, 66.66666666666667)"></rect><rect width="6.578947368421053" height="6.578947368421053" x="396.71052631578954" y="63.377192982456144" transform="rotate(45, 400.00000000000006, 66.66666666666667)"></rect><rect width="6.578947368421053" height="6.578947368421053" x="463.3771929824562" y="63.377192982456144" transform="rotate(45, 466.66666666666674, 66.66666666666667)"></rect><rect width="6.578947368421053" height="6.578947368421053" x="530.0438596491229" y="63.377192982456144" transform="rotate(45, 533.3333333333334, 66.66666666666667)"></rect><rect width="6.578947368421053" height="6.578947368421053" x="596.7105263157895" y="63.377192982456144" transform="rotate(45, 600, 66.66666666666667)"></rect><rect width="6.578947368421053" height="6.578947368421053" x="663.3771929824561" y="63.377192982456144" transform="rotate(45, 666.6666666666666, 66.66666666666667)"></rect><rect width="6.578947368421053" height="6.578947368421053" x="730.0438596491227" y="63.377192982456144" transform="rotate(45, 733.3333333333333, 66.66666666666667)"></rect><rect width="6.578947368421053" height="6.578947368421053" x="796.7105263157894" y="63.377192982456144" transform="rotate(45, 799.9999999999999, 66.66666666666667)"></rect><rect width="6.578947368421053" height="6.578947368421053" x="-3.2894736842105265" y="130.04385964912282" transform="rotate(45, 0, 133.33333333333334)"></rect><rect width="6.578947368421053" height="6.578947368421053" x="63.377192982456144" y="130.04385964912282" transform="rotate(45, 66.66666666666667, 133.33333333333334)"></rect><rect width="6.578947368421053" height="6.578947368421053" x="130.04385964912282" y="130.04385964912282" transform="rotate(45, 133.33333333333334, 133.33333333333334)"></rect><rect width="6.578947368421053" height="6.578947368421053" x="196.71052631578948" y="130.04385964912282" transform="rotate(45, 200, 133.33333333333334)"></rect><rect width="6.578947368421053" height="6.578947368421053" x="263.37719298245617" y="130.04385964912282" transform="rotate(45, 266.6666666666667, 133.33333333333334)"></rect><rect width="6.578947368421053" height="6.578947368421053" x="330.04385964912285" y="130.04385964912282" fill="hsla(37, 91%, 55%, 1.00)" stroke="none" transform="rotate(45, 333.33333333333337, 133.33333333333334)"></rect><rect width="6.578947368421053" height="6.578947368421053" x="396.71052631578954" y="130.04385964912282" transform="rotate(45, 400.00000000000006, 133.33333333333334)"></rect><rect width="6.578947368421053" height="6.578947368421053" x="463.3771929824562" y="130.04385964912282" transform="rotate(45, 466.66666666666674, 133.33333333333334)"></rect><rect width="6.578947368421053" height="6.578947368421053" x="530.0438596491229" y="130.04385964912282" fill="hsla(37, 91%, 55%, 1.00)" stroke="none" transform="rotate(45, 533.3333333333334, 133.33333333333334)"></rect><rect width="6.578947368421053" height="6.578947368421053" x="596.7105263157895" y="130.04385964912282" transform="rotate(45, 600, 133.33333333333334)"></rect><rect width="6.578947368421053" height="6.578947368421053" x="663.3771929824561" y="130.04385964912282" transform="rotate(45, 666.6666666666666, 133.33333333333334)"></rect><rect width="6.578947368421053" height="6.578947368421053" x="730.0438596491227" y="130.04385964912282" transform="rotate(45, 733.3333333333333, 133.33333333333334)"></rect><rect width="6.578947368421053" height="6.578947368421053" x="796.7105263157894" y="130.04385964912282" transform="rotate(45, 799.9999999999999, 133.33333333333334)"></rect><rect width="6.578947368421053" height="6.578947368421053" x="-3.2894736842105265" y="196.71052631578948" transform="rotate(45, 0, 200)"></rect><rect width="6.578947368421053" height="6.578947368421053" x="63.377192982456144" y="196.71052631578948" transform="rotate(45, 66.66666666666667, 200)"></rect><rect width="6.578947368421053" height="6.578947368421053" x="130.04385964912282" y="196.71052631578948" fill="hsla(37, 91%, 55%, 1.00)" stroke="none" transform="rotate(45, 133.33333333333334, 200)"></rect><rect width="6.578947368421053" height="6.578947368421053" x="196.71052631578948" y="196.71052631578948" fill="hsla(37, 91%, 55%, 1.00)" stroke="none" transform="rotate(45, 200, 200)"></rect><rect width="6.578947368421053" height="6.578947368421053" x="263.37719298245617" y="196.71052631578948" fill="hsla(37, 91%, 55%, 1.00)" stroke="none" transform="rotate(45, 266.6666666666667, 200)"></rect><rect width="6.578947368421053" height="6.578947368421053" x="330.04385964912285" y="196.71052631578948" transform="rotate(45, 333.33333333333337, 200)"></rect><rect width="6.578947368421053" height="6.578947368421053" x="396.71052631578954" y="196.71052631578948" transform="rotate(45, 400.00000000000006, 200)"></rect><rect width="6.578947368421053" height="6.578947368421053" x="463.3771929824562" y="196.71052631578948" transform="rotate(45, 466.66666666666674, 200)"></rect><rect width="6.578947368421053" height="6.578947368421053" x="530.0438596491229" y="196.71052631578948" transform="rotate(45, 533.3333333333334, 200)"></rect><rect width="6.578947368421053" height="6.578947368421053" x="596.7105263157895" y="196.71052631578948" transform="rotate(45, 600, 200)"></rect><rect width="6.578947368421053" height="6.578947368421053" x="663.3771929824561" y="196.71052631578948" transform="rotate(45, 666.6666666666666, 200)"></rect><rect width="6.578947368421053" height="6.578947368421053" x="730.0438596491227" y="196.71052631578948" transform="rotate(45, 733.3333333333333, 200)"></rect><rect width="6.578947368421053" height="6.578947368421053" x="796.7105263157894" y="196.71052631578948" transform="rotate(45, 799.9999999999999, 200)"></rect><rect width="6.578947368421053" height="6.578947368421053" x="-3.2894736842105265" y="263.37719298245617" transform="rotate(45, 0, 266.6666666666667)"></rect><rect width="6.578947368421053" height="6.578947368421053" x="63.377192982456144" y="263.37719298245617" transform="rotate(45, 66.66666666666667, 266.6666666666667)"></rect><rect width="6.578947368421053" height="6.578947368421053" x="130.04385964912282" y="263.37719298245617" transform="rotate(45, 133.33333333333334, 266.6666666666667)"></rect><rect width="6.578947368421053" height="6.578947368421053" x="196.71052631578948" y="263.37719298245617" transform="rotate(45, 200, 266.6666666666667)"></rect><rect width="6.578947368421053" height="6.578947368421053" x="263.37719298245617" y="263.37719298245617" fill="hsla(37, 91%, 55%, 1.00)" stroke="none" transform="rotate(45, 266.6666666666667, 266.6666666666667)"></rect><rect width="6.578947368421053" height="6.578947368421053" x="330.04385964912285" y="263.37719298245617" transform="rotate(45, 333.33333333333337, 266.6666666666667)"></rect><rect width="6.578947368421053" height="6.578947368421053" x="396.71052631578954" y="263.37719298245617" transform="rotate(45, 400.00000000000006, 266.6666666666667)"></rect><rect width="6.578947368421053" height="6.578947368421053" x="463.3771929824562" y="263.37719298245617" transform="rotate(45, 466.66666666666674, 266.6666666666667)"></rect><rect width="6.578947368421053" height="6.578947368421053" x="530.0438596491229" y="263.37719298245617" fill="hsla(37, 91%, 55%, 1.00)" stroke="none" transform="rotate(45, 533.3333333333334, 266.6666666666667)"></rect><rect width="6.578947368421053" height="6.578947368421053" x="596.7105263157895" y="263.37719298245617" transform="rotate(45, 600, 266.6666666666667)"></rect><rect width="6.578947368421053" height="6.578947368421053" x="663.3771929824561" y="263.37719298245617" transform="rotate(45, 666.6666666666666, 266.6666666666667)"></rect><rect width="6.578947368421053" height="6.578947368421053" x="730.0438596491227" y="263.37719298245617" transform="rotate(45, 733.3333333333333, 266.6666666666667)"></rect><rect width="6.578947368421053" height="6.578947368421053" x="796.7105263157894" y="263.37719298245617" transform="rotate(45, 799.9999999999999, 266.6666666666667)"></rect><rect width="6.578947368421053" height="6.578947368421053" x="-3.2894736842105265" y="330.04385964912285" transform="rotate(45, 0, 333.33333333333337)"></rect><rect width="6.578947368421053" height="6.578947368421053" x="63.377192982456144" y="330.04385964912285" transform="rotate(45, 66.66666666666667, 333.33333333333337)"></rect><rect width="6.578947368421053" height="6.578947368421053" x="130.04385964912282" y="330.04385964912285" fill="hsla(37, 91%, 55%, 1.00)" stroke="none" transform="rotate(45, 133.33333333333334, 333.33333333333337)"></rect><rect width="6.578947368421053" height="6.578947368421053" x="196.71052631578948" y="330.04385964912285" transform="rotate(45, 200, 333.33333333333337)"></rect><rect width="6.578947368421053" height="6.578947368421053" x="263.37719298245617" y="330.04385964912285" transform="rotate(45, 266.6666666666667, 333.33333333333337)"></rect><rect width="6.578947368421053" height="6.578947368421053" x="330.04385964912285" y="330.04385964912285" transform="rotate(45, 333.33333333333337, 333.33333333333337)"></rect><rect width="6.578947368421053" height="6.578947368421053" x="396.71052631578954" y="330.04385964912285" transform="rotate(45, 400.00000000000006, 333.33333333333337)"></rect><rect width="6.578947368421053" height="6.578947368421053" x="463.3771929824562" y="330.04385964912285" transform="rotate(45, 466.66666666666674, 333.33333333333337)"></rect><rect width="6.578947368421053" height="6.578947368421053" x="530.0438596491229" y="330.04385964912285" fill="hsla(37, 91%, 55%, 1.00)" stroke="none" transform="rotate(45, 533.3333333333334, 333.33333333333337)"></rect><rect width="6.578947368421053" height="6.578947368421053" x="596.7105263157895" y="330.04385964912285" transform="rotate(45, 600, 333.33333333333337)"></rect><rect width="6.578947368421053" height="6.578947368421053" x="663.3771929824561" y="330.04385964912285" transform="rotate(45, 666.6666666666666, 333.33333333333337)"></rect><rect width="6.578947368421053" height="6.578947368421053" x="730.0438596491227" y="330.04385964912285" transform="rotate(45, 733.3333333333333, 333.33333333333337)"></rect><rect width="6.578947368421053" height="6.578947368421053" x="796.7105263157894" y="330.04385964912285" transform="rotate(45, 799.9999999999999, 333.33333333333337)"></rect><rect width="6.578947368421053" height="6.578947368421053" x="-3.2894736842105265" y="396.71052631578954" transform="rotate(45, 0, 400.00000000000006)"></rect><rect width="6.578947368421053" height="6.578947368421053" x="63.377192982456144" y="396.71052631578954" transform="rotate(45, 66.66666666666667, 400.00000000000006)"></rect><rect width="6.578947368421053" height="6.578947368421053" x="130.04385964912282" y="396.71052631578954" transform="rotate(45, 133.33333333333334, 400.00000000000006)"></rect><rect width="6.578947368421053" height="6.578947368421053" x="196.71052631578948" y="396.71052631578954" transform="rotate(45, 200, 400.00000000000006)"></rect><rect width="6.578947368421053" height="6.578947368421053" x="263.37719298245617" y="396.71052631578954" fill="hsla(37, 91%, 55%, 1.00)" stroke="none" transform="rotate(45, 266.6666666666667, 400.00000000000006)"></rect><rect width="6.578947368421053" height="6.578947368421053" x="330.04385964912285" y="396.71052631578954" fill="hsla(37, 91%, 55%, 1.00)" stroke="none" transform="rotate(45, 333.33333333333337, 400.00000000000006)"></rect><rect width="6.578947368421053" height="6.578947368421053" x="396.71052631578954" y="396.71052631578954" transform="rotate(45, 400.00000000000006, 400.00000000000006)"></rect><rect width="6.578947368421053" height="6.578947368421053" x="463.3771929824562" y="396.71052631578954" transform="rotate(45, 466.66666666666674, 400.00000000000006)"></rect><rect width="6.578947368421053" height="6.578947368421053" x="530.0438596491229" y="396.71052631578954" transform="rotate(45, 533.3333333333334, 400.00000000000006)"></rect><rect width="6.578947368421053" height="6.578947368421053" x="596.7105263157895" y="396.71052631578954" fill="hsla(37, 91%, 55%, 1.00)" stroke="none" transform="rotate(45, 600, 400.00000000000006)"></rect><rect width="6.578947368421053" height="6.578947368421053" x="663.3771929824561" y="396.71052631578954" transform="rotate(45, 666.6666666666666, 400.00000000000006)"></rect><rect width="6.578947368421053" height="6.578947368421053" x="730.0438596491227" y="396.71052631578954" fill="hsla(37, 91%, 55%, 1.00)" stroke="none" transform="rotate(45, 733.3333333333333, 400.00000000000006)"></rect><rect width="6.578947368421053" height="6.578947368421053" x="796.7105263157894" y="396.71052631578954" transform="rotate(45, 799.9999999999999, 400.00000000000006)"></rect><rect width="6.578947368421053" height="6.578947368421053" x="-3.2894736842105265" y="463.3771929824562" transform="rotate(45, 0, 466.66666666666674)"></rect><rect width="6.578947368421053" height="6.578947368421053" x="63.377192982456144" y="463.3771929824562" transform="rotate(45, 66.66666666666667, 466.66666666666674)"></rect><rect width="6.578947368421053" height="6.578947368421053" x="130.04385964912282" y="463.3771929824562" fill="hsla(37, 91%, 55%, 1.00)" stroke="none" transform="rotate(45, 133.33333333333334, 466.66666666666674)"></rect><rect width="6.578947368421053" height="6.578947368421053" x="196.71052631578948" y="463.3771929824562" transform="rotate(45, 200, 466.66666666666674)"></rect><rect width="6.578947368421053" height="6.578947368421053" x="263.37719298245617" y="463.3771929824562" transform="rotate(45, 266.6666666666667, 466.66666666666674)"></rect><rect width="6.578947368421053" height="6.578947368421053" x="330.04385964912285" y="463.3771929824562" transform="rotate(45, 333.33333333333337, 466.66666666666674)"></rect><rect width="6.578947368421053" height="6.578947368421053" x="396.71052631578954" y="463.3771929824562" transform="rotate(45, 400.00000000000006, 466.66666666666674)"></rect><rect width="6.578947368421053" height="6.578947368421053" x="463.3771929824562" y="463.3771929824562" transform="rotate(45, 466.66666666666674, 466.66666666666674)"></rect><rect width="6.578947368421053" height="6.578947368421053" x="530.0438596491229" y="463.3771929824562" transform="rotate(45, 533.3333333333334, 466.66666666666674)"></rect><rect width="6.578947368421053" height="6.578947368421053" x="596.7105263157895" y="463.3771929824562" transform="rotate(45, 600, 466.66666666666674)"></rect><rect width="6.578947368421053" height="6.578947368421053" x="663.3771929824561" y="463.3771929824562" transform="rotate(45, 666.6666666666666, 466.66666666666674)"></rect><rect width="6.578947368421053" height="6.578947368421053" x="730.0438596491227" y="463.3771929824562" fill="hsla(37, 91%, 55%, 1.00)" stroke="none" transform="rotate(45, 733.3333333333333, 466.66666666666674)"></rect><rect width="6.578947368421053" height="6.578947368421053" x="796.7105263157894" y="463.3771929824562" transform="rotate(45, 799.9999999999999, 466.66666666666674)"></rect><rect width="6.578947368421053" height="6.578947368421053" x="-3.2894736842105265" y="530.0438596491229" transform="rotate(45, 0, 533.3333333333334)"></rect><rect width="6.578947368421053" height="6.578947368421053" x="63.377192982456144" y="530.0438596491229" transform="rotate(45, 66.66666666666667, 533.3333333333334)"></rect><rect width="6.578947368421053" height="6.578947368421053" x="130.04385964912282" y="530.0438596491229" transform="rotate(45, 133.33333333333334, 533.3333333333334)"></rect><rect width="6.578947368421053" height="6.578947368421053" x="196.71052631578948" y="530.0438596491229" transform="rotate(45, 200, 533.3333333333334)"></rect><rect width="6.578947368421053" height="6.578947368421053" x="263.37719298245617" y="530.0438596491229" transform="rotate(45, 266.6666666666667, 533.3333333333334)"></rect><rect width="6.578947368421053" height="6.578947368421053" x="330.04385964912285" y="530.0438596491229" transform="rotate(45, 333.33333333333337, 533.3333333333334)"></rect><rect width="6.578947368421053" height="6.578947368421053" x="396.71052631578954" y="530.0438596491229" transform="rotate(45, 400.00000000000006, 533.3333333333334)"></rect><rect width="6.578947368421053" height="6.578947368421053" x="463.3771929824562" y="530.0438596491229" transform="rotate(45, 466.66666666666674, 533.3333333333334)"></rect><rect width="6.578947368421053" height="6.578947368421053" x="530.0438596491229" y="530.0438596491229" transform="rotate(45, 533.3333333333334, 533.3333333333334)"></rect><rect width="6.578947368421053" height="6.578947368421053" x="596.7105263157895" y="530.0438596491229" fill="hsla(37, 91%, 55%, 1.00)" stroke="none" transform="rotate(45, 600, 533.3333333333334)"></rect><rect width="6.578947368421053" height="6.578947368421053" x="663.3771929824561" y="530.0438596491229" transform="rotate(45, 666.6666666666666, 533.3333333333334)"></rect><rect width="6.578947368421053" height="6.578947368421053" x="730.0438596491227" y="530.0438596491229" transform="rotate(45, 733.3333333333333, 533.3333333333334)"></rect><rect width="6.578947368421053" height="6.578947368421053" x="796.7105263157894" y="530.0438596491229" transform="rotate(45, 799.9999999999999, 533.3333333333334)"></rect><rect width="6.578947368421053" height="6.578947368421053" x="-3.2894736842105265" y="596.7105263157895" transform="rotate(45, 0, 600)"></rect><rect width="6.578947368421053" height="6.578947368421053" x="63.377192982456144" y="596.7105263157895" transform="rotate(45, 66.66666666666667, 600)"></rect><rect width="6.578947368421053" height="6.578947368421053" x="130.04385964912282" y="596.7105263157895" transform="rotate(45, 133.33333333333334, 600)"></rect><rect width="6.578947368421053" height="6.578947368421053" x="196.71052631578948" y="596.7105263157895" transform="rotate(45, 200, 600)"></rect><rect width="6.578947368421053" height="6.578947368421053" x="263.37719298245617" y="596.7105263157895" fill="hsla(37, 91%, 55%, 1.00)" stroke="none" transform="rotate(45, 266.6666666666667, 600)"></rect><rect width="6.578947368421053" height="6.578947368421053" x="330.04385964912285" y="596.7105263157895" transform="rotate(45, 333.33333333333337, 600)"></rect><rect width="6.578947368421053" height="6.578947368421053" x="396.71052631578954" y="596.7105263157895" transform="rotate(45, 400.00000000000006, 600)"></rect><rect width="6.578947368421053" height="6.578947368421053" x="463.3771929824562" y="596.7105263157895" transform="rotate(45, 466.66666666666674, 600)"></rect><rect width="6.578947368421053" height="6.578947368421053" x="530.0438596491229" y="596.7105263157895" transform="rotate(45, 533.3333333333334, 600)"></rect><rect width="6.578947368421053" height="6.578947368421053" x="596.7105263157895" y="596.7105263157895" transform="rotate(45, 600, 600)"></rect><rect width="6.578947368421053" height="6.578947368421053" x="663.3771929824561" y="596.7105263157895" fill="hsla(37, 91%, 55%, 1.00)" stroke="none" transform="rotate(45, 666.6666666666666, 600)"></rect><rect width="6.578947368421053" height="6.578947368421053" x="730.0438596491227" y="596.7105263157895" transform="rotate(45, 733.3333333333333, 600)"></rect><rect width="6.578947368421053" height="6.578947368421053" x="796.7105263157894" y="596.7105263157895" transform="rotate(45, 799.9999999999999, 600)"></rect><rect width="6.578947368421053" height="6.578947368421053" x="-3.2894736842105265" y="663.3771929824561" transform="rotate(45, 0, 666.6666666666666)"></rect><rect width="6.578947368421053" height="6.578947368421053" x="63.377192982456144" y="663.3771929824561" transform="rotate(45, 66.66666666666667, 666.6666666666666)"></rect><rect width="6.578947368421053" height="6.578947368421053" x="130.04385964912282" y="663.3771929824561" transform="rotate(45, 133.33333333333334, 666.6666666666666)"></rect><rect width="6.578947368421053" height="6.578947368421053" x="196.71052631578948" y="663.3771929824561" transform="rotate(45, 200, 666.6666666666666)"></rect><rect width="6.578947368421053" height="6.578947368421053" x="263.37719298245617" y="663.3771929824561" transform="rotate(45, 266.6666666666667, 666.6666666666666)"></rect><rect width="6.578947368421053" height="6.578947368421053" x="330.04385964912285" y="663.3771929824561" fill="hsla(37, 91%, 55%, 1.00)" stroke="none" transform="rotate(45, 333.33333333333337, 666.6666666666666)"></rect><rect width="6.578947368421053" height="6.578947368421053" x="396.71052631578954" y="663.3771929824561" fill="hsla(37, 91%, 55%, 1.00)" stroke="none" transform="rotate(45, 400.00000000000006, 666.6666666666666)"></rect><rect width="6.578947368421053" height="6.578947368421053" x="463.3771929824562" y="663.3771929824561" fill="hsla(37, 91%, 55%, 1.00)" stroke="none" transform="rotate(45, 466.66666666666674, 666.6666666666666)"></rect><rect width="6.578947368421053" height="6.578947368421053" x="530.0438596491229" y="663.3771929824561" transform="rotate(45, 533.3333333333334, 666.6666666666666)"></rect><rect width="6.578947368421053" height="6.578947368421053" x="596.7105263157895" y="663.3771929824561" fill="hsla(37, 91%, 55%, 1.00)" stroke="none" transform="rotate(45, 600, 666.6666666666666)"></rect><rect width="6.578947368421053" height="6.578947368421053" x="663.3771929824561" y="663.3771929824561" transform="rotate(45, 666.6666666666666, 666.6666666666666)"></rect><rect width="6.578947368421053" height="6.578947368421053" x="730.0438596491227" y="663.3771929824561" transform="rotate(45, 733.3333333333333, 666.6666666666666)"></rect><rect width="6.578947368421053" height="6.578947368421053" x="796.7105263157894" y="663.3771929824561" transform="rotate(45, 799.9999999999999, 666.6666666666666)"></rect><rect width="6.578947368421053" height="6.578947368421053" x="-3.2894736842105265" y="730.0438596491227" transform="rotate(45, 0, 733.3333333333333)"></rect><rect width="6.578947368421053" height="6.578947368421053" x="63.377192982456144" y="730.0438596491227" transform="rotate(45, 66.66666666666667, 733.3333333333333)"></rect><rect width="6.578947368421053" height="6.578947368421053" x="130.04385964912282" y="730.0438596491227" fill="hsla(37, 91%, 55%, 1.00)" stroke="none" transform="rotate(45, 133.33333333333334, 733.3333333333333)"></rect><rect width="6.578947368421053" height="6.578947368421053" x="196.71052631578948" y="730.0438596491227" transform="rotate(45, 200, 733.3333333333333)"></rect><rect width="6.578947368421053" height="6.578947368421053" x="263.37719298245617" y="730.0438596491227" transform="rotate(45, 266.6666666666667, 733.3333333333333)"></rect><rect width="6.578947368421053" height="6.578947368421053" x="330.04385964912285" y="730.0438596491227" transform="rotate(45, 333.33333333333337, 733.3333333333333)"></rect><rect width="6.578947368421053" height="6.578947368421053" x="396.71052631578954" y="730.0438596491227" transform="rotate(45, 400.00000000000006, 733.3333333333333)"></rect><rect width="6.578947368421053" height="6.578947368421053" x="463.3771929824562" y="730.0438596491227" transform="rotate(45, 466.66666666666674, 733.3333333333333)"></rect><rect width="6.578947368421053" height="6.578947368421053" x="530.0438596491229" y="730.0438596491227" transform="rotate(45, 533.3333333333334, 733.3333333333333)"></rect><rect width="6.578947368421053" height="6.578947368421053" x="596.7105263157895" y="730.0438596491227" fill="hsla(37, 91%, 55%, 1.00)" stroke="none" transform="rotate(45, 600, 733.3333333333333)"></rect><rect width="6.578947368421053" height="6.578947368421053" x="663.3771929824561" y="730.0438596491227" transform="rotate(45, 666.6666666666666, 733.3333333333333)"></rect><rect width="6.578947368421053" height="6.578947368421053" x="730.0438596491227" y="730.0438596491227" transform="rotate(45, 733.3333333333333, 733.3333333333333)"></rect><rect width="6.578947368421053" height="6.578947368421053" x="796.7105263157894" y="730.0438596491227" transform="rotate(45, 799.9999999999999, 733.3333333333333)"></rect><rect width="6.578947368421053" height="6.578947368421053" x="-3.2894736842105265" y="796.7105263157894" transform="rotate(45, 0, 799.9999999999999)"></rect><rect width="6.578947368421053" height="6.578947368421053" x="63.377192982456144" y="796.7105263157894" transform="rotate(45, 66.66666666666667, 799.9999999999999)"></rect><rect width="6.578947368421053" height="6.578947368421053" x="130.04385964912282" y="796.7105263157894" transform="rotate(45, 133.33333333333334, 799.9999999999999)"></rect><rect width="6.578947368421053" height="6.578947368421053" x="196.71052631578948" y="796.7105263157894" transform="rotate(45, 200, 799.9999999999999)"></rect><rect width="6.578947368421053" height="6.578947368421053" x="263.37719298245617" y="796.7105263157894" transform="rotate(45, 266.6666666666667, 799.9999999999999)"></rect><rect width="6.578947368421053" height="6.578947368421053" x="330.04385964912285" y="796.7105263157894" transform="rotate(45, 333.33333333333337, 799.9999999999999)"></rect><rect width="6.578947368421053" height="6.578947368421053" x="396.71052631578954" y="796.7105263157894" transform="rotate(45, 400.00000000000006, 799.9999999999999)"></rect><rect width="6.578947368421053" height="6.578947368421053" x="463.3771929824562" y="796.7105263157894" transform="rotate(45, 466.66666666666674, 799.9999999999999)"></rect><rect width="6.578947368421053" height="6.578947368421053" x="530.0438596491229" y="796.7105263157894" transform="rotate(45, 533.3333333333334, 799.9999999999999)"></rect><rect width="6.578947368421053" height="6.578947368421053" x="596.7105263157895" y="796.7105263157894" transform="rotate(45, 600, 799.9999999999999)"></rect><rect width="6.578947368421053" height="6.578947368421053" x="663.3771929824561" y="796.7105263157894" transform="rotate(45, 666.6666666666666, 799.9999999999999)"></rect><rect width="6.578947368421053" height="6.578947368421053" x="730.0438596491227" y="796.7105263157894" transform="rotate(45, 733.3333333333333, 799.9999999999999)"></rect><rect width="6.578947368421053" height="6.578947368421053" x="796.7105263157894" y="796.7105263157894" transform="rotate(45, 799.9999999999999, 799.9999999999999)"></rect></g></svg>