<svg xmlns="http://www.w3.org/2000/svg" width="933.333" height="933.333" preserveAspectRatio="xMidYMid meet" version="1.0" viewBox="0 0 700 700"><metadata>Created by potrace 1.14, written by Peter Selinger 2001-2017</metadata><g fill="#000" stroke="none"><path d="M3425 6260 c-74 -36 -240 -116 -510 -245 -60 -29 -177 -85 -260 -125 -141 -68 -215 -103 -445 -213 -52 -24 -171 -82 -265 -127 -93 -45 -206 -99 -250 -120 -44 -21 -152 -73 -240 -115 -88 -43 -200 -97 -250 -120 -49 -23 -151 -72 -225 -108 -277 -133 -448 -215 -557 -267 -121 -58 -144 -80 -127 -128 10 -28 67 -60 449 -244 88 -42 246 -118 350 -169 105 -50 235 -113 290 -139 55 -26 177 -85 270 -130 201 -97 417 -202 570 -275 61 -29 187 -90 280 -135 94 -45 229 -110 300 -145 129 -62 219 -105 558 -269 98 -47 181 -86 184 -86 3 0 49 21 102 46 53 26 146 70 206 99 61 29 169 81 240 115 289 139 405 194 500 240 55 26 168 80 250 120 83 40 195 94 250 120 55 26 163 78 240 115 131 63 196 94 480 230 61 29 162 77 225 108 63 30 183 87 265 126 515 247 497 235 472 307 -8 22 -74 55 -852 429 -368 177 -636 306 -840 405 -93 45 -224 108 -290 140 -66 32 -192 92 -280 135 -88 43 -214 103 -280 135 -66 32 -192 92 -280 135 -345 167 -407 195 -428 195 -12 0 -58 -18 -102 -40z m322 -211 c114 -56 244 -118 288 -139 44 -21 157 -75 250 -120 94 -45 229 -111 300 -145 258 -124 383 -184 550 -265 94 -45 215 -104 270 -130 55 -26 181 -87 280 -135 99 -48 250 -121 335 -162 85 -41 240 -115 343 -166 l189 -92 -114 -55 c-121 -58 -324 -156 -553 -265 -77 -37 -205 -99 -285 -137 -136 -66 -206 -100 -470 -226 -58 -27 -181 -87 -275 -132 -93 -45 -204 -98 -245 -117 -41 -20 -162 -78 -269 -129 -106 -52 -195 -94 -196 -94 -2 0 -110 -52 -242 -115 -131 -64 -265 -128 -297 -144 l-59 -28 -226 110 c-223 108 -340 164 -536 257 -55 26 -190 91 -300 145 -110 53 -249 121 -310 150 -60 29 -191 92 -290 140 -99 48 -216 104 -260 125 -44 21 -170 81 -280 135 -110 54 -240 117 -290 140 -49 23 -189 91 -310 150 l-220 108 130 62 c72 35 193 93 270 130 77 37 194 93 260 125 66 32 167 80 225 108 58 27 166 79 240 115 74 35 187 89 250 120 63 30 183 87 265 127 83 40 195 94 250 120 55 26 152 72 215 103 63 30 169 81 235 112 236 113 412 198 530 255 66 32 125 59 132 59 6 1 105 -44 220 -100z" transform="translate(0.000000,700.000000) scale(0.100000,-0.100000)"/><path d="M1320 4040 c-14 -4 -43 -17 -65 -28 -22 -11 -103 -51 -180 -87 -77 -37 -187 -90 -245 -117 -566 -271 -523 -249 -534 -281 -16 -44 6 -74 76 -106 35 -16 158 -75 273 -131 116 -56 255 -124 310 -150 55 -26 190 -92 300 -145 110 -54 241 -116 290 -140 50 -23 167 -80 260 -125 94 -45 229 -111 300 -145 72 -34 193 -93 270 -130 77 -37 201 -97 275 -133 74 -35 198 -95 275 -132 77 -37 201 -97 275 -132 74 -36 178 -86 230 -112 52 -25 104 -46 116 -46 12 0 102 39 200 86 99 47 206 99 239 114 33 15 154 73 269 129 115 56 210 101 211 101 2 0 100 47 219 105 119 58 249 120 289 139 40 19 144 69 232 111 88 43 205 99 260 125 55 26 154 73 220 105 66 32 170 81 230 110 61 29 184 88 275 132 91 44 215 103 275 132 324 154 334 161 313 222 -11 31 12 19 -448 242 -171 83 -241 116 -501 240 -53 25 -102 44 -110 43 -33 -7 -48 -19 -58 -48 -22 -62 -33 -55 494 -308 66 -32 183 -88 259 -125 l140 -66 -70 -34 c-163 -79 -430 -207 -511 -246 -48 -23 -180 -86 -292 -140 -112 -55 -204 -99 -206 -99 -2 0 -92 -43 -202 -96 -109 -53 -238 -115 -288 -139 -49 -23 -151 -72 -225 -107 -324 -156 -372 -179 -505 -243 -77 -37 -174 -83 -215 -102 -41 -20 -167 -80 -279 -134 -112 -55 -207 -99 -212 -99 -8 0 -77 33 -404 190 -82 40 -195 94 -250 120 -55 26 -190 92 -300 145 -110 54 -236 114 -280 135 -44 21 -170 82 -280 135 -110 54 -249 121 -310 150 -209 100 -361 173 -540 260 -170 83 -259 125 -537 259 -65 31 -118 58 -118 61 0 3 19 14 43 24 23 10 119 56 212 101 94 45 202 97 240 115 238 111 365 177 374 194 32 59 -15 119 -79 101z" transform="translate(0.000000,700.000000) scale(0.100000,-0.100000)"/><path d="M1260 2802 c-27 -8 -92 -39 -324 -151 -126 -61 -230 -111 -231 -111 -1 0 -91 -43 -199 -95 -208 -100 -226 -115 -212 -170 7 -27 88 -70 516 -273 85 -40 282 -135 605 -292 94 -45 215 -104 270 -130 55 -26 177 -85 270 -130 94 -45 224 -108 290 -140 66 -32 192 -93 280 -135 88 -43 214 -103 280 -135 66 -32 190 -91 275 -133 386 -187 452 -217 465 -217 15 0 71 25 315 143 162 78 811 388 965 462 61 29 182 87 270 130 88 42 192 92 230 110 39 18 164 78 278 134 115 55 210 101 212 101 1 0 89 42 196 93 107 52 228 110 269 130 432 206 490 236 500 261 22 58 8 68 -257 197 -137 67 -279 136 -318 154 -38 18 -142 67 -230 110 -204 99 -195 95 -232 80 -36 -15 -52 -61 -32 -93 7 -11 83 -54 168 -95 500 -243 648 -314 661 -319 8 -3 -86 -54 -214 -117 -126 -61 -230 -111 -231 -111 -2 0 -109 -52 -240 -115 -130 -63 -238 -115 -240 -115 -1 0 -101 -48 -221 -106 -121 -58 -246 -119 -279 -134 -33 -15 -136 -65 -230 -110 -93 -45 -215 -104 -270 -130 -55 -26 -158 -76 -230 -110 -71 -34 -170 -82 -220 -105 -49 -24 -166 -80 -260 -125 -210 -101 -355 -170 -359 -170 -2 0 -97 46 -212 101 -115 56 -249 120 -299 144 -49 23 -180 86 -290 140 -110 54 -249 121 -310 150 -60 29 -182 87 -270 130 -88 43 -200 97 -250 120 -49 23 -169 81 -265 127 -278 136 -703 340 -875 423 -60 29 -142 68 -182 88 l-72 34 137 66 c663 315 665 316 677 350 16 48 -30 104 -75 89z" transform="translate(0.000000,700.000000) scale(0.100000,-0.100000)"/></g></svg>