<?xml version="1.0" encoding="utf-8"?>
<!-- Uploaded to: SVG Repo, www.svgrepo.com, Generator: SVG Repo Mixer Tools -->
<svg fill="#000000" width="800px" height="800px" viewBox="0 0 32 32" version="1.1" xmlns="http://www.w3.org/2000/svg">
<title>infinity</title>
<path d="M0 16q0 2.496 1.216 4.608t3.328 3.328 4.608 1.216q1.504 0 3.072-0.576-1.472-1.824-2.272-4.064-0.544 0.064-0.8 0.064-1.888 0-3.232-1.344t-1.344-3.232 1.344-3.232 3.232-1.344 3.232 1.344 1.344 3.232q0 2.496 1.216 4.608t3.328 3.328 4.576 1.216 4.608-1.216 3.328-3.328 1.216-4.608-1.216-4.576-3.328-3.328-4.608-1.216q-1.504 0-3.072 0.544 1.472 1.824 2.272 4.096 0.544-0.096 0.8-0.096 1.888 0 3.232 1.344t1.344 3.232q0 1.92-1.344 3.264t-3.232 1.312q-1.888 0-3.232-1.312t-1.344-3.264q0-2.464-1.216-4.576t-3.328-3.328-4.576-1.216-4.608 1.216-3.328 3.328-1.216 4.576z"></path>
</svg>